Coordinates
version=1
nRows=7
nColumns=40
inDegrees=yes

Units are S.I. units (second, meters, Newtons, ...)
If the header above contains a line with 'inDegrees', this indicates whether rotational values are in degrees (yes) or radians (no).

endheader
time	pelvis_tilt	pelvis_list	pelvis_rotation	pelvis_tx	pelvis_ty	pelvis_tz	hip_flexion_r	hip_adduction_r	hip_rotation_r	knee_angle_r	knee_angle_r_beta	ankle_angle_r	subtalar_angle_r	mtp_angle_r	hip_flexion_l	hip_adduction_l	hip_rotation_l	knee_angle_l	knee_angle_l_beta	ankle_angle_l	subtalar_angle_l	mtp_angle_l	lumbar_extension	lumbar_bending	lumbar_rotation	arm_flex_r	arm_add_r	arm_rot_r	elbow_flex_r	pro_sup_r	wrist_flex_r	wrist_dev_r	arm_flex_l	arm_add_l	arm_rot_l	elbow_flex_l	pro_sup_l	wrist_flex_l	wrist_dev_l
     11.75000000	    -24.30965471	      4.03401480	      2.01293145	      0.07472187	      1.28591223	      0.00377994	     92.12468373	      2.48739265	     16.32343921	    109.14268607	      1.90489923	    -10.35396935	    -15.35291209	      0.00000000	     53.03964012	     -2.90488980	     -7.01308236	     37.62768459	      0.65672699	    -19.95381594	    -18.37671822	      0.00000000	    -33.60594901	     -5.62788094	      0.62403505	     65.84463693	     11.99745323	    -57.23410598	     39.60586038	     82.56472847	      0.00000000	      0.00000000	     60.26503135	     13.76055405	    -47.42711538	     40.93934159	     15.78679263	      0.00000000	      0.00000000
     11.76700000	    -24.24834505	      3.93322968	      1.75328205	      0.07495489	      1.28584157	      0.00384585	     94.00453606	      3.35945722	     15.88332686	    108.80813103	      1.89906014	     -9.11118155	    -15.51380029	      0.00000000	     51.85632793	     -3.30444287	     -7.33386948	     38.47145877	      0.67145362	    -20.45765153	    -18.72936350	      0.00000000	    -33.69231438	     -5.58535689	      0.99731289	     65.83854808	     12.05495382	    -57.19624588	     39.82051825	     82.36072352	      0.00000000	      0.00000000	     60.30813208	     13.74372832	    -47.35810042	     40.78790717	     15.98941615	      0.00000000	      0.00000000
     11.78300000	    -24.21317550	      3.54302311	      1.68074196	      0.07513496	      1.28583238	      0.00344649	     95.58103116	      3.98958620	     15.07053616	    107.62552555	      1.87841978	     -8.57392750	    -15.72333688	      0.00000000	     51.34378578	     -3.72513181	     -7.04071161	     40.40544508	      0.70520805	    -20.60533555	    -19.71338284	      0.00000000	    -33.79056339	     -5.21448189	      1.34955167	     65.90400947	     12.15293213	    -57.28844318	     40.08275356	     82.34814181	      0.00000000	      0.00000000	     60.38158182	     13.68760073	    -47.12055052	     40.64109175	     16.14969950	      0.00000000	      0.00000000
     11.80000000	    -24.14745709	      3.25654031	      1.76094677	      0.07532622	      1.28596541	      0.00289863	     96.55785609	      4.32843976	     14.40078740	    105.77731589	      1.84616244	     -8.32404354	    -15.91443703	      0.00000000	     51.32836407	     -3.99310080	     -6.58585918	     43.11778853	      0.75254738	    -20.71511895	    -20.71544223	      0.00000000	    -33.93868011	     -4.87192622	      1.47908664	     66.01999998	     12.22858539	    -57.41325984	     40.26140743	     82.45378640	      0.00000000	      0.00000000	     60.45758388	     13.68240957	    -46.99650518	     40.60706438	     16.22021170	      0.00000000	      0.00000000
     11.81700000	    -23.81677248	      3.56533033	      2.02063583	      0.07582322	      1.28655599	      0.00233713	     96.60336153	      4.35526079	     14.52275894	    103.37449950	      1.80422538	     -8.19885985	    -15.87214374	      0.00000000	     51.40809348	     -3.79532407	     -6.38158581	     46.37890351	      0.80946457	    -20.95965862	    -20.90104229	      0.00000000	    -34.42042132	     -5.02773926	      1.04374485	     66.11385784	     12.30835223	    -57.41438231	     40.39431736	     82.36273342	      0.00000000	      0.00000000	     60.63410822	     13.61125874	    -46.89778107	     40.62163886	     16.29418268	      0.00000000	      0.00000000
     11.83300000	    -23.94867479	      2.89233157	      2.01140051	      0.07580750	      1.28634986	      0.00199378	     96.57281192	      4.50739301	     13.68494040	    100.04159877	      1.74605529	     -8.39986897	    -15.11852768	      0.00000000	     52.79060413	     -4.48734850	     -5.54958072	     50.90739772	      0.88850170	    -20.63855663	    -22.43042665	      0.00000000	    -34.27132569	     -4.36464954	      1.41577652	     66.37916250	     12.38363237	    -57.88733763	     40.38682610	     82.50062886	      0.00000000	      0.00000000	     60.65804228	     13.68921380	    -46.95881675	     40.69794160	     16.33933248	      0.00000000	      0.00000000
     11.85000000	    -23.83571023	      2.84613455	      2.20813889	      0.07593944	      1.28659398	      0.00151880	     95.71731357	      4.28499982	     13.43605483	     96.43794118	      1.68315960	     -8.68079116	    -14.67766193	      0.00000000	     54.04514525	     -4.53443262	     -4.85705417	     55.44932737	      0.96777333	    -20.52682697	    -23.31859907	      0.00000000	    -34.44469456	     -4.20870322	      1.23684705	     66.58042924	     12.46285961	    -58.15433969	     40.45188793	     82.74935071	      0.00000000	      0.00000000	     60.75158326	     13.74050203	    -47.02332845	     40.81930641	     16.30496572	      0.00000000	      0.00000000
